# File created by Blade
# Date/Time:  Wed Apr 08 17:12:22 2015
#---------------------------------------------------------
:version 1.10
:name HOM
:units
  mass 1.0
  length 1.000000
  angle deg
:documentation
     Acclaim Skeleton File
:root
   axis xyz
   order TX TY TZ RX RY RZ
   position 0.000000 0.000000 0.000000
   orientation 0 0 0
:bonedata
   begin
      id 1
      name Spine_dum
      direction 0.000000 1.000000 0.000000
      length 5.893853
      axis 0.0 0.0 0.0 xyz
   end
   begin
      id 2
      name LeftUpLeg_dum
      direction 1.000000 0.000000 0.000000
      length 3.697939
      axis 0.0 0.0 0.0 xyz
   end
   begin
      id 3
      name RightUpLeg_dum
      direction -1.000000 0.000000 0.000000
      length 3.697939
      axis 0.0 0.0 0.0 xyz
   end
   begin
      id 4
      name Spine
      direction 0.000000 1.000000 0.000000
      length 0.000000
      axis 0.0 0.0 0.0 xyz
      dof rx ry rz
   end
   begin
      id 5
      name Spine_dum1
      direction 0.000000 1.000000 0.000000
      length 16.447146
      axis 0.0 0.0 0.0 xyz
   end
   begin
      id 6
      name Spine_dum2
      direction 0.000000 1.000000 0.000000
      length 10.900383
      axis 0.0 0.0 0.0 xyz
   end
   begin
      id 7
      name Spine_dum3
      direction 0.000000 1.000000 0.000000
      length 10.900383
      axis 0.0 0.0 0.0 xyz
   end
   begin
      id 8
      name Head
      direction 0.000000 1.000000 0.000000
      length 4.527550
      axis 0.0 0.0 0.0 xyz
      dof rx ry rz
   end
   begin
      id 9
      name LeftShoulder
      direction 1.000000 0.000000 0.000000
      length 8.219464
      axis 0.0 0.0 -90.0 xyz
      dof rx ry rz
   end
   begin
      id 10
      name LeftArm
      direction 1.000000 0.000000 0.000000
      length 11.094937
      axis 0.0 0.0 -90.0 xyz
      dof rx ry rz
   end
   begin
      id 11
      name LeftForeArm
      direction 1.000000 0.000000 0.000000
      length 9.103875
      axis 0.0 0.0 -90.0 xyz
      dof ry rz rx
   end
   begin
      id 12
      name LeftHand
      direction 0.000000 0.000000 0.000000
      length 0.000000
      axis 0.0 0.0 -90.0 xyz
      dof rx ry rz
   end
   begin
      id 13
      name LeftHand_dum1
      direction 0.000000 0.000000 0.000000
      length 0.000000
      axis 0.0 0.0 -90.0 xyz
   end
   begin
      id 14
      name LeftHand_dum2
      direction 1.000000 0.000000 0.000000
      length 3.937000
      axis 0.0 0.0 -90.0 xyz
   end
   begin
      id 15
      name LeftHandThumb1
      direction 0.000000 0.000000 1.000000
      length 3.937000
      axis 0.0 0.0 -90.0 xyz
      dof rx rz ry
   end
   begin
      id 16
      name RightShoulder
      direction -1.000000 0.000000 0.000000
      length 8.219464
      axis 0.0 0.0 90.0 xyz
      dof rx ry rz
   end
   begin
      id 17
      name RightArm
      direction -1.000000 0.000000 0.000000
      length 11.094937
      axis 0.0 0.0 90.0 xyz
      dof rx ry rz
   end
   begin
      id 18
      name RightForeArm
      direction -1.000000 0.000000 0.000000
      length 9.103875
      axis 0.0 0.0 90.0 xyz
      dof ry rz rx
   end
   begin
      id 19
      name RightHand
      direction 0.000000 0.000000 0.000000
      length 0.000000
      axis 0.0 0.0 90.0 xyz
      dof rx ry rz
   end
   begin
      id 20
      name RightHand_dum1
      direction 0.000000 0.000000 0.000000
      length 0.000000
      axis 0.0 0.0 90.0 xyz
   end
   begin
      id 21
      name RightHand_dum2
      direction -1.000000 0.000000 0.000000
      length 3.937000
      axis 0.0 0.0 90.0 xyz
   end
   begin
      id 22
      name RightHandThumb1
      direction 0.000000 0.000000 1.000000
      length 3.937000
      axis 0.0 0.0 90.0 xyz
      dof rx rz ry
   end
   begin
      id 23
      name LeftUpLeg
      direction 0.000000 -1.000000 0.000000
      length 16.181467
      axis 0.0 0.0 0.0 xyz
      dof rx ry rz
   end
   begin
      id 24
      name LeftLeg
      direction 0.000000 -1.000000 0.000000
      length 16.501392
      axis 0.0 0.0 0.0 xyz
      dof rx ry rz
   end
   begin
      id 25
      name LeftFoot
      direction 0.000000 -0.258819 0.965926
      length 6.408245
      axis 15.0 0.0 0.0 xyz
      dof rx ry rz
   end
   begin
      id 26
      name LeftToeBase
      direction 0.000000 0.000000 1.000000
      length 2.952750
      axis 0.0 0.0 0.0 xyz
      dof rx ry rz
   end
   begin
      id 27
      name RightUpLeg
      direction 0.000000 -1.000000 0.000000
      length 16.181467
      axis 0.0 0.0 0.0 xyz
      dof rx ry rz
   end
   begin
      id 28
      name RightLeg
      direction 0.000000 -1.000000 0.000000
      length 16.501392
      axis 0.0 0.0 0.0 xyz
      dof rx ry rz
   end
   begin
      id 29
      name RightFoot
      direction 0.000000 -0.258819 0.965926
      length 6.408245
      axis 15.0 0.0 0.0 xyz
      dof rx ry rz
   end
   begin
      id 30
      name RightToeBase
      direction 0.000000 0.000000 1.000000
      length 2.952750
      axis 0.0 0.0 0.0 xyz
      dof rx ry rz
   end
:hierarchy
   begin
      root Spine_dum LeftUpLeg_dum RightUpLeg_dum
      Spine_dum Spine
      LeftUpLeg_dum LeftUpLeg
      RightUpLeg_dum RightUpLeg
      Spine Spine_dum1 Spine_dum2 Spine_dum3
      Spine_dum1 Head
      Spine_dum2 LeftShoulder
      Spine_dum3 RightShoulder
      LeftShoulder LeftArm
      LeftArm LeftForeArm
      LeftForeArm LeftHand
      LeftHand LeftHand_dum1 LeftHand_dum2
      LeftHand_dum1 LeftHandThumb1
      RightShoulder RightArm
      RightArm RightForeArm
      RightForeArm RightHand
      RightHand RightHand_dum1 RightHand_dum2
      RightHand_dum1 RightHandThumb1
      LeftUpLeg LeftLeg
      LeftLeg LeftFoot
      LeftFoot LeftToeBase
      RightUpLeg RightLeg
      RightLeg RightFoot
      RightFoot RightToeBase
   end

# File created by Blade
# Date/Time:  Wed Apr 08 17:12:12 2015
# Frame Rate: 120.000 fps
#------------------------------------------------------
:FULLY-SPECIFIED
:DEGREES
110
root 4.374496 36.589372 3.232946 38.358597 -66.046913 -22.022182
Spine -15.780564 -1.984336 5.450500
Head 12.448555 8.143232 8.464604
LeftShoulder -8.196637 24.171365 17.961373
LeftArm 15.750158 -11.376729 -65.358718
LeftForeArm 16.848977 -0.000000 56.108983
LeftHand -14.207432 0.000000 -8.516103
LeftHandThumb1 -26.253704 0.000000 33.147579
RightShoulder -33.347753 -53.014832 12.571712
RightArm 53.098078 18.646060 52.157344
RightForeArm 7.650323 -0.000000 28.895614
RightHand 1.657653 0.000000 8.348860
RightHandThumb1 -24.326973 -0.000000 -32.862282
LeftUpLeg -24.461209 12.370373 -2.102735
LeftLeg 15.230967 -0.000000 -0.000000
LeftFoot -14.006592 16.651652 -5.707623
LeftToeBase 2.229188 -0.000000 -0.000000
RightUpLeg -86.341955 -18.410756 2.772302
RightLeg 109.034507 -0.000000 -0.000000
RightFoot 1.020368 -0.866843 23.100949
RightToeBase 3.858362 -0.000000 -0.000000
111
root 4.372036 36.592161 3.242839 38.418117 -65.843015 -22.227782
Spine -15.682636 -2.000781 5.571222
Head 12.575328 8.372567 8.495070
LeftShoulder -8.322982 24.338248 17.713185
LeftArm 15.995719 -9.954571 -66.036345
LeftForeArm 17.005257 0.000000 56.484346
LeftHand -13.966544 -0.000000 -8.883507
LeftHandThumb1 -26.253704 0.000000 33.147579
RightShoulder -33.436950 -53.128824 12.938194
RightArm 53.391625 17.367059 51.650157
RightForeArm 7.606232 -0.000000 29.386069
RightHand 1.721389 0.000000 8.518752
RightHandThumb1 -24.326973 -0.000000 -32.862282
LeftUpLeg -24.377841 12.250608 -1.891059
LeftLeg 15.318388 -0.000000 -0.000000
LeftFoot -14.047513 16.646662 -5.675680
LeftToeBase 2.174871 -0.000000 -0.000000
RightUpLeg -87.048999 -18.177273 2.753395
RightLeg 109.763189 -0.000000 -0.000000
RightFoot 1.125844 -0.594155 22.974895
RightToeBase 3.658623 -0.000000 -0.000000
112
root 4.367560 36.596503 3.252118 38.489956 -65.627677 -22.442738
Spine -15.601720 -1.996903 5.703831
Head 12.702027 8.576398 8.536320
LeftShoulder -8.375112 24.517442 17.479657
LeftArm 16.225623 -8.530283 -66.713583
LeftForeArm 17.112382 0.000000 56.822916
LeftHand -13.920783 -0.000000 -9.109409
LeftHandThumb1 -26.253704 0.000000 33.147579
RightShoulder -33.498555 -53.233837 13.287678
RightArm 53.673106 16.143515 51.214835
RightForeArm 7.459392 -0.000000 29.882057
RightHand 1.740457 -0.000000 8.780376
RightHandThumb1 -24.326973 -0.000000 -32.862282
LeftUpLeg -24.303174 12.148771 -1.675370
LeftLeg 15.413805 -0.000000 -0.000000
LeftFoot -14.081559 16.653595 -5.527586
LeftToeBase 2.263476 -0.000000 -0.000000
RightUpLeg -87.749342 -17.946336 2.790198
RightLeg 110.474744 -0.000000 -0.000000
RightFoot 1.193737 -0.341191 22.968096
RightToeBase 3.533122 -0.000000 -0.000000
113
root 4.364750 36.600749 3.263724 38.560355 -65.439506 -22.630440
Spine -15.533487 -1.965915 5.808682
Head 12.773761 8.801881 8.537764
LeftShoulder -8.438589 24.674678 17.280294
LeftArm 16.449490 -6.970023 -67.340447
LeftForeArm 16.964561 -0.000000 57.092719
LeftHand -13.896796 -0.000000 -9.177124
LeftHandThumb1 -26.253704 0.000000 33.147579
RightShoulder -33.529301 -53.304747 13.627124
RightArm 53.909779 14.934604 50.740426
RightForeArm 7.445472 -0.000000 30.408645
RightHand 1.716966 -0.000000 8.926069
RightHandThumb1 -24.326973 -0.000000 -32.862282
LeftUpLeg -24.244690 12.042021 -1.486630
LeftLeg 15.501288 -0.000000 -0.000000
LeftFoot -14.098067 16.618994 -5.535720
LeftToeBase 2.121042 -0.000000 -0.000000
RightUpLeg -88.470508 -17.704012 2.828714
RightLeg 111.153952 -0.000000 -0.000000
RightFoot 1.289558 -0.111876 22.736220
RightToeBase 3.738687 -0.000000 -0.000000
114
root 4.362815 36.605674 3.272576 38.649443 -65.204444 -22.809849
Spine -15.516319 -1.923442 5.942027
Head 12.895966 8.980288 8.553024
LeftShoulder -8.430448 24.783627 17.119428
LeftArm 16.637259 -5.360042 -67.931042
LeftForeArm 16.534066 0.000000 57.285082
LeftHand -13.860189 -0.000000 -9.159638
LeftHandThumb1 -26.253704 0.000000 33.147579
RightShoulder -33.490027 -53.393241 13.877232
RightArm 54.157080 13.861037 50.584241
RightForeArm 7.193302 -0.000000 30.945577
RightHand 1.745902 -0.000000 9.334312
RightHandThumb1 -24.326973 -0.000000 -32.862282
LeftUpLeg -24.236502 11.915902 -1.284364
LeftLeg 15.609292 -0.000000 -0.000000
LeftFoot -14.122976 16.647944 -5.353587
LeftToeBase 2.261790 -0.000000 -0.000000
RightUpLeg -89.206773 -17.456284 2.908204
RightLeg 111.826408 -0.000000 -0.000000
RightFoot 1.353150 0.066400 22.640227
RightToeBase 3.697010 -0.000000 -0.000000
115
root 4.362139 36.611562 3.277981 38.793794 -64.946781 -23.024456
Spine -15.520192 -1.854433 6.079446
Head 12.985230 9.106525 8.642577
LeftShoulder -8.429177 25.088905 16.948225
LeftArm 17.091572 -3.877878 -68.573645
LeftForeArm 16.376894 -0.000000 57.404272
LeftHand -13.780483 -0.000000 -9.156926
LeftHandThumb1 -26.253704 0.000000 33.147579
RightShoulder -33.563725 -53.538282 14.329987
RightArm 54.392571 12.860652 50.249452
RightForeArm 7.145605 -0.000000 31.553015
RightHand 1.748107 0.000000 9.399543
RightHandThumb1 -24.326973 -0.000000 -32.862282
LeftUpLeg -24.263696 11.768635 -1.051450
LeftLeg 15.739019 -0.000000 -0.000000
LeftFoot -14.136945 16.616243 -5.286379
LeftToeBase 2.415864 -0.000000 -0.000000
RightUpLeg -89.965591 -17.193951 3.045728
RightLeg 112.476447 -0.000000 -0.000000
RightFoot 1.468287 0.219763 22.559519
RightToeBase 3.501428 -0.000000 -0.000000
116
root 4.363356 36.618383 3.284730 38.934978 -64.698687 -23.217743
Spine -15.538053 -1.789103 6.228945
Head 13.053383 9.278889 8.687510
LeftShoulder -8.511106 25.289843 16.719234
LeftArm 17.562795 -2.330738 -69.129560
LeftForeArm 16.330778 0.000000 57.374323
LeftHand -13.537052 -0.000000 -9.329343
LeftHandThumb1 -26.253704 0.000000 33.147579
RightShoulder -33.552000 -53.687744 14.716093
RightArm 54.627776 11.978347 50.081737
RightForeArm 7.026903 -0.000000 32.175184
RightHand 1.858423 0.000000 9.642288
RightHandThumb1 -24.326973 -0.000000 -32.862282
LeftUpLeg -24.310573 11.652430 -0.846954
LeftLeg 15.848099 -0.000000 -0.000000
LeftFoot -14.148164 16.605148 -5.199011
LeftToeBase 2.314599 -0.000000 -0.000000
RightUpLeg -90.743401 -16.946251 3.194649
RightLeg 113.103780 -0.000000 -0.000000
RightFoot 1.587743 0.412909 22.459999
RightToeBase 3.565677 -0.000000 -0.000000
